<svg width="44" height="44" viewBox="0 0 44 44" fill="none" xmlns="http://www.w3.org/2000/svg">
<path d="M35.8334 18.8333V13.1869L43.5632 20.9167L35.8334 28.6464V23V22.75H35.5834C35.046 22.75 32.6585 22.8346 30.2786 23.994C27.8846 25.1602 25.5023 27.4147 25.0225 31.7223L25.0005 31.9197L25.1878 31.9858C28.3071 33.0855 29.9477 36.5258 28.8476 39.646C27.748 42.765 24.3084 44.4056 21.1885 43.3063C18.0867 42.1852 16.4282 38.7636 17.5275 35.6456L17.5276 35.6456L17.5295 35.6399C18.0867 33.9285 19.4834 32.5872 21.1875 31.9857L21.3404 31.9318L21.3534 31.7701C21.9469 24.424 28.2085 18.8376 35.5751 19.0832L35.8334 19.0918V18.8333ZM25.1667 8.16666H24.9167V8.41666V17.5065C23.5649 18.3501 22.3383 19.3637 21.2501 20.5202V8.41666V8.16666H21.0001H15.3536L23.0834 0.436882L30.8132 8.16666H25.1667ZM5.58341 24.8333H5.40604L5.34745 25.0007L3.94771 29H0.520969L7.00986 10.75H10.8236L17.3125 29H13.8858L12.486 25.0007L12.4275 24.8333H12.2501H5.58341ZM6.28247 22.1957L6.18003 22.5208H6.52092H11.3126H11.6535L11.551 22.1957L9.15519 14.5915L8.91675 13.8347L8.6783 14.5915L6.28247 22.1957ZM25.4167 37.5833C25.4167 36.9645 25.1709 36.371 24.7333 35.9334C24.2957 35.4958 23.7023 35.25 23.0834 35.25C22.4646 35.25 21.8711 35.4958 21.4335 35.9334C20.9959 36.371 20.7501 36.9645 20.7501 37.5833C20.7501 38.2022 20.9959 38.7957 21.4335 39.2332C21.8711 39.6708 22.4646 39.9167 23.0834 39.9167C23.7023 39.9167 24.2957 39.6708 24.7333 39.2332C25.1709 38.7957 25.4167 38.2022 25.4167 37.5833Z" fill="#118BBF" stroke="white" stroke-width="0.5"/>
</svg>
