<svg width="38" height="42" viewBox="0 0 38 42" fill="none" xmlns="http://www.w3.org/2000/svg">
<path d="M31.1042 5.31251C30.9375 5.31251 30.7708 5.27084 30.625 5.18751C26.625 3.12501 23.1667 2.25001 19.0208 2.25001C14.8958 2.25001 10.9792 3.22917 7.41666 5.18751C6.91666 5.45834 6.29166 5.27084 5.99999 4.77084C5.72916 4.27084 5.91666 3.62501 6.41666 3.35417C10.2917 1.25001 14.5417 0.166672 19.0208 0.166672C23.4583 0.166672 27.3333 1.14584 31.5833 3.33334C32.1042 3.60417 32.2917 4.22917 32.0208 4.72917C31.8333 5.10417 31.4792 5.31251 31.1042 5.31251ZM1.29166 16.25C1.08332 16.25 0.874989 16.1875 0.687489 16.0625C0.208322 15.7292 0.104156 15.0833 0.437489 14.6042C2.49999 11.6875 5.12499 9.39584 8.24999 7.79167C14.7917 4.41667 23.1667 4.39584 29.7292 7.77084C32.8542 9.37501 35.4792 11.6458 37.5417 14.5417C37.875 15 37.7708 15.6667 37.2917 16C36.8125 16.3333 36.1667 16.2292 35.8333 15.75C33.9583 13.125 31.5833 11.0625 28.7708 9.62501C22.7917 6.56251 15.1458 6.56251 9.18749 9.64584C6.35416 11.1042 3.97916 13.1875 2.10416 15.8125C1.93749 16.1042 1.62499 16.25 1.29166 16.25ZM14.3125 41.3958C14.0417 41.3958 13.7708 41.2917 13.5833 41.0833C11.7708 39.2708 10.7917 38.1042 9.39582 35.5833C7.95832 33.0208 7.20832 29.8958 7.20832 26.5417C7.20832 20.3542 12.5 15.3125 19 15.3125C25.5 15.3125 30.7917 20.3542 30.7917 26.5417C30.7917 27.125 30.3333 27.5833 29.75 27.5833C29.1667 27.5833 28.7083 27.125 28.7083 26.5417C28.7083 21.5 24.3542 17.3958 19 17.3958C13.6458 17.3958 9.29166 21.5 9.29166 26.5417C9.29166 29.5417 9.95832 32.3125 11.2292 34.5625C12.5625 36.9583 13.4792 37.9792 15.0833 39.6042C15.4792 40.0208 15.4792 40.6667 15.0833 41.0833C14.8542 41.2917 14.5833 41.3958 14.3125 41.3958ZM29.25 37.5417C26.7708 37.5417 24.5833 36.9167 22.7917 35.6875C19.6875 33.5833 17.8333 30.1667 17.8333 26.5417C17.8333 25.9583 18.2917 25.5 18.875 25.5C19.4583 25.5 19.9167 25.9583 19.9167 26.5417C19.9167 29.4792 21.4167 32.25 23.9583 33.9583C25.4375 34.9583 27.1667 35.4375 29.25 35.4375C29.75 35.4375 30.5833 35.375 31.4167 35.2292C31.9792 35.125 32.5208 35.5 32.625 36.0833C32.7292 36.6458 32.3542 37.1875 31.7708 37.2917C30.5833 37.5208 29.5417 37.5417 29.25 37.5417ZM25.0625 41.8333C24.9792 41.8333 24.875 41.8125 24.7917 41.7917C21.4792 40.875 19.3125 39.6458 17.0417 37.4167C14.125 34.5208 12.5208 30.6667 12.5208 26.5417C12.5208 23.1667 15.3958 20.4167 18.9375 20.4167C22.4792 20.4167 25.3542 23.1667 25.3542 26.5417C25.3542 28.7708 27.2917 30.5833 29.6875 30.5833C32.0833 30.5833 34.0208 28.7708 34.0208 26.5417C34.0208 18.6875 27.25 12.3125 18.9167 12.3125C13 12.3125 7.58332 15.6042 5.14582 20.7083C4.33332 22.3958 3.91666 24.375 3.91666 26.5417C3.91666 28.1667 4.06249 30.7292 5.31249 34.0625C5.52082 34.6042 5.24999 35.2083 4.70832 35.3958C4.16666 35.6042 3.56249 35.3125 3.37499 34.7917C2.35416 32.0625 1.85416 29.3542 1.85416 26.5417C1.85416 24.0417 2.33332 21.7708 3.27082 19.7917C6.04166 13.9792 12.1875 10.2083 18.9167 10.2083C28.3958 10.2083 36.1042 17.5208 36.1042 26.5208C36.1042 29.8958 33.2292 32.6458 29.6875 32.6458C26.1458 32.6458 23.2708 29.8958 23.2708 26.5208C23.2708 24.2917 21.3333 22.4792 18.9375 22.4792C16.5417 22.4792 14.6042 24.2917 14.6042 26.5208C14.6042 30.0833 15.9792 33.4167 18.5 35.9167C20.4792 37.875 22.375 38.9583 25.3125 39.7708C25.875 39.9167 26.1875 40.5 26.0417 41.0417C25.9375 41.5208 25.5 41.8333 25.0625 41.8333Z" fill="#118BBF" stroke="#118BBF" stroke-width="0.3"/>
</svg>
