<svg width="46" height="26" viewBox="0 0 46 26" fill="none" xmlns="http://www.w3.org/2000/svg">
<path d="M40.762 8.44888L40.6178 8.40383L40.5109 8.51048L33.0942 15.9063L32.9869 16.0133L33.0321 16.1579C33.1266 16.4601 33.1666 16.8084 33.1666 17.1667C33.1666 19.3203 31.4035 21.0833 29.2499 21.0833C27.0963 21.0833 25.3333 19.3203 25.3333 17.1667C25.3333 16.8084 25.3733 16.4601 25.4677 16.1579L25.5128 16.0135L25.4059 15.9066L20.0934 10.5941L19.9864 10.4871L19.842 10.5322C19.5398 10.6266 19.1915 10.6667 18.8333 10.6667C18.475 10.6667 18.1267 10.6266 17.8245 10.5322L17.6799 10.487L17.5729 10.5943L8.09378 20.0942L7.98707 20.2012L8.03213 20.3454C8.12689 20.6486 8.16658 20.9765 8.16658 21.3333C8.16658 23.4869 6.40351 25.25 4.24992 25.25C2.09632 25.25 0.333252 23.4869 0.333252 21.3333C0.333252 19.1797 2.09632 17.4167 4.24992 17.4167C4.60676 17.4167 4.93463 17.4564 5.23785 17.5511L5.38205 17.5962L5.489 17.4895L14.989 8.0103L15.0962 7.90333L15.051 7.75877C14.9566 7.45657 14.9166 7.10827 14.9166 6.75C14.9166 4.5964 16.6797 2.83333 18.8333 2.83333C20.9868 2.83333 22.7499 4.5964 22.7499 6.75C22.7499 7.10827 22.7099 7.45657 22.6155 7.75877L22.5703 7.90315L22.6773 8.01011L27.9898 13.3226L28.0968 13.4296L28.2412 13.3845C28.5433 13.29 28.8916 13.25 29.2499 13.25C29.6082 13.25 29.9565 13.29 30.2587 13.3845L30.4033 13.4296L30.5103 13.3224L37.9061 5.90569L38.0128 5.79875L37.9677 5.6546C37.8729 5.35138 37.8333 5.02351 37.8333 4.66667C37.8333 2.51307 39.5963 0.75 41.7499 0.75C43.9035 0.75 45.6666 2.51307 45.6666 4.66667C45.6666 6.82026 43.9035 8.58333 41.7499 8.58333C41.3931 8.58333 41.0652 8.54364 40.762 8.44888Z" fill="#118BBF" stroke="white" stroke-width="0.5"/>
</svg>
