<svg width="46" height="46" viewBox="0 0 46 46" fill="none" xmlns="http://www.w3.org/2000/svg">
<path d="M0.333252 21.1667H12.3333V24.8333H0.333252V21.1667ZM12.6874 10.1036L16.7505 14.1667L14.1666 16.7506L10.1035 12.6875L12.6874 10.1036ZM21.1666 12.3333V0.333332H24.8333V12.3333H21.1666ZM35.8964 12.6875L31.8333 16.7506L29.2493 14.1667L33.3124 10.1036L35.8964 12.6875ZM45.6666 24.8333H33.6666V21.1667H45.6666V24.8333ZM16.9999 23C16.9999 19.6797 19.6797 17 22.9999 17C26.3202 17 28.9999 19.6797 28.9999 23C28.9999 26.3203 26.3202 29 22.9999 29C19.6797 29 16.9999 26.3203 16.9999 23ZM33.3124 35.8964L29.2493 31.8333L31.8333 29.2494L35.8964 33.3125L33.3124 35.8964ZM10.1035 33.3125L14.1666 29.2494L16.7505 31.8333L12.6874 35.8964L10.1035 33.3125ZM24.8333 33.6667V45.6667H21.1666V33.6667H24.8333Z" fill="#118BBF" stroke="white" stroke-width="0.5"/>
</svg>
