<svg width="42" height="42" viewBox="0 0 42 42" fill="none" xmlns="http://www.w3.org/2000/svg">
<path d="M18.1682 4.33658L17.8034 4.39598L17.9944 4.7125C20.954 9.61698 26.3248 12.9167 32.4584 12.9167C33.4345 12.9167 34.3862 12.8106 35.2903 12.6634L35.6551 12.604L35.4641 12.2875C32.5045 7.38303 27.1337 4.08333 21.0001 4.08333C20.024 4.08333 19.0723 4.1894 18.1682 4.33658ZM4.97124 15.6501L4.7653 16.268L5.33176 15.9466C8.94711 13.8958 11.7382 10.5553 13.0706 6.55823L13.2765 5.94039L12.7101 6.26172C9.09472 8.31253 6.3036 11.653 4.97124 15.6501ZM37.219 16.2624L37.1533 16.0404L36.9269 16.0889C35.483 16.3983 34.0007 16.5833 32.4584 16.5833C26.0162 16.5833 20.2735 13.6199 16.4853 8.98757L16.2197 8.66278L16.0604 9.05097C13.8997 14.319 9.59804 18.4568 4.24524 20.4744L4.03687 20.5529L4.09088 20.769C4.09085 20.7688 4.09193 20.7733 4.09243 20.785C4.09292 20.7967 4.09269 20.812 4.09157 20.8332C4.09112 20.8418 4.09036 20.853 4.08947 20.8661C4.08694 20.9035 4.08342 20.9555 4.08342 21C4.08342 30.3256 11.6745 37.9167 21.0001 37.9167C30.3257 37.9167 37.9168 30.3256 37.9168 21C37.9168 19.3491 37.6628 17.7628 37.219 16.2624ZM17.1042 23.0833C17.1042 24.3828 16.0495 25.4375 14.7501 25.4375C13.4507 25.4375 12.3959 24.3828 12.3959 23.0833C12.3959 21.7839 13.4507 20.7292 14.7501 20.7292C16.0495 20.7292 17.1042 21.7839 17.1042 23.0833ZM24.8959 23.0833C24.8959 21.7839 25.9507 20.7292 27.2501 20.7292C28.5495 20.7292 29.6042 21.7839 29.6042 23.0833C29.6042 24.3828 28.5495 25.4375 27.2501 25.4375C25.9507 25.4375 24.8959 24.3828 24.8959 23.0833ZM41.5834 21C41.5834 32.3619 32.362 41.5833 21.0001 41.5833C9.63815 41.5833 0.416748 32.3619 0.416748 21C0.416748 9.63807 9.63815 0.416668 21.0001 0.416668C32.362 0.416668 41.5834 9.63807 41.5834 21Z" fill="#118BBF" stroke="white" stroke-width="0.5"/>
</svg>
